Coordinates
version=1
nRows=19
nColumns=34
inDegrees=yes

Units are S.I. units (second, meters, Newtons, ...)
If the header above contains a line with 'inDegrees', this indicates whether rotational values are in degrees (yes) or radians (no).

endheader
time	pelvis_tilt	pelvis_list	pelvis_rotation	pelvis_tx	pelvis_ty	pelvis_tz	hip_flexion_r	hip_adduction_r	hip_rotation_r	knee_angle_r	ankle_angle_r	subtalar_angle_r	mtp_angle_r	hip_flexion_l	hip_adduction_l	hip_rotation_l	knee_angle_l	ankle_angle_l	subtalar_angle_l	mtp_angle_l	lumbar_extension	lumbar_bending	lumbar_rotation	arm_flex_r	arm_add_r	arm_rot_r	elbow_flex_r	pro_sup_r	arm_flex_l	arm_add_l	arm_rot_l	elbow_flex_l	pro_sup_l
      4.81666670	    -13.21394431	      0.69854073	      0.77806345	      0.93228598	      1.04982492	     -0.28996542	     29.93007190	     -9.22175877	     -3.71379989	     22.57150191	      4.65493661	     -5.61146230	      0.00000000	     30.60909116	    -12.00987856	     -9.75900724	     23.20170434	      0.84879730	      9.37991652	      0.00000000	    -26.54700218	     -1.82277436	      3.05480858	     39.63264435	     -9.50393506	     18.99071111	     95.96676935	     90.15847825	     46.73823334	     -9.57935029	     31.78058923	     94.30483227	     71.00752980
      4.83333330	    -12.57969096	      0.78352971	      0.82154701	      0.93721985	      1.05532640	     -0.29089028	     27.27180098	     -9.18725362	     -4.54882886	     20.01748939	      2.81923382	     -5.32456849	      0.00000000	     27.84186257	    -11.50958462	    -10.24823465	     20.59826521	      0.05894450	      9.69859427	      0.00000000	    -23.95571818	     -2.09517511	      2.72332200	     35.49706675	     -9.08815884	     19.77187092	     96.20641197	     90.28456053	     43.05334340	    -10.04301080	     32.02701637	     93.96155911	     70.96357899
      4.85000000	    -11.80541046	      0.99131894	      0.75413694	      0.94051607	      1.05898690	     -0.29114758	     24.90571509	     -9.20628510	     -4.85788805	     17.84386597	      0.90167424	     -5.47292682	      0.00000000	     25.15203515	    -10.88857586	    -10.51145995	     18.04709795	     -0.62215461	      9.62068925	      0.00000000	    -21.77389972	     -2.49612091	      2.55317067	     32.06442988	     -8.80221073	     19.37870829	     95.51091574	     90.34275364	     39.41103463	    -10.47155254	     31.69330038	     94.26206000	     70.80375551
      4.86666670	    -11.36258075	      1.32224178	      0.68017754	      0.95315747	      1.06285117	     -0.29206564	     22.98021322	     -9.43482455	     -5.73799206	     15.91474246	     -0.89593877	     -5.40972983	      0.00000000	     22.82060910	    -10.22576225	    -10.46393067	     15.67321421	     -1.18165825	      9.76546532	      0.00000000	    -19.31180865	     -2.99669817	      2.41982181	     29.03465058	     -8.71240681	     19.71824537	     95.37718620	     90.38298340	     36.40353273	    -11.05978681	     32.13633158	     94.82350458	     70.70548450
      4.88333330	    -10.61918993	      1.39170696	      0.97982779	      0.96624161	      1.06247737	     -0.29173997	     20.58174080	     -9.53768683	     -5.78483264	     14.23122379	     -1.59380228	     -5.33014203	      0.00000000	     20.47612259	     -9.75750766	     -9.91995401	     13.65240426	     -1.26077159	      9.79610497	      0.00000000	    -17.29227709	     -3.01550258	      1.70448199	     25.89755445	     -8.61632094	     19.71691193	     95.67143413	     90.42614778	     33.33579154	    -11.84569543	     32.16877497	     95.40478620	     70.42432692
      4.90000000	     -9.99528247	      1.41674517	      1.41239054	      0.97777033	      1.07480118	     -0.28975919	     18.22294443	     -9.54772121	     -5.81052152	     12.46049194	     -2.39871879	     -4.83290367	      0.00000000	     18.19660392	     -9.32950334	     -9.73475019	     11.52927213	     -1.59719126	     10.00135432	      0.00000000	    -15.18780277	     -2.90015996	      1.24983411	     22.45258654	     -8.64604354	     19.92804411	     96.09696918	     90.48880362	     29.84639551	    -12.19345129	     31.88758375	     95.52680843	     70.05113884
      4.91666670	     -9.27609422	      1.23777156	      1.56278133	      0.98484512	      1.07324480	     -0.28955283	     16.37933054	     -9.22012013	     -6.07338857	     11.51864529	     -3.03016203	     -5.05477329	      0.00000000	     16.19422368	     -9.27815020	     -9.58096664	     10.09908935	     -1.44175468	     10.19386492	      0.00000000	    -13.42846426	     -2.63019027	      1.04820700	     19.45042265	     -8.79683766	     20.31490876	     96.83195876	     90.52907392	     26.26996700	    -12.61962902	     31.86442646	     96.80895935	     69.62469703
      4.93333330	     -8.59255432	      1.09157057	      1.71269884	      0.99362551	      1.07407700	     -0.29241714	     14.77634047	     -8.97552858	     -6.31751751	     10.88559101	     -3.81028069	     -5.64144737	      0.00000000	     14.31571362	     -9.16283916	     -9.44668782	      8.79981608	     -1.30492764	     10.17795923	      0.00000000	    -11.59910934	     -2.18218909	      0.82945875	     16.76453382	     -9.21636769	     20.83008377	     97.57167018	     90.54096326	     23.07187709	    -13.02583202	     32.15697486	     98.19149516	     69.22607471
      4.95000000	     -7.94663678	      0.76107755	      1.93848070	      0.99968400	      1.07089320	     -0.29542920	     13.48587465	     -8.62767930	     -5.90361779	     10.74117607	     -3.38114779	     -6.11168139	      0.00000000	     12.70440038	     -9.24215508	     -9.24351659	      7.83178210	     -0.65045204	      9.97938722	      0.00000000	     -9.85896888	     -1.41473870	      0.61466722	     14.42042647	    -10.10877885	     21.53797585	     98.58893999	     90.54495033	     20.40951370	    -13.27786370	     32.22039791	     98.98535255	     68.92066675
      4.96666670	     -7.08669507	      0.25598628	      2.09075399	      1.00421118	      1.08281015	     -0.29384776	     12.42377309	     -7.88315532	     -6.09342339	     10.85308150	     -3.24316365	     -7.29352069	      0.00000000	     11.09134876	     -9.60201126	     -8.92392796	      7.13504888	     -0.18101191	     10.09309820	      0.00000000	     -8.88562730	     -0.65461080	      0.32668256	     12.17087084	    -10.72125438	     22.32798666	     99.29379763	     90.54687402	     17.75213262	    -13.37767628	     31.98565028	     99.17848684	     68.55150364
      4.98333330	     -6.37549301	      0.18801483	      2.47107411	      1.01995141	      1.07829412	     -0.29382064	     10.77895753	     -7.78636060	     -5.88591586	     10.50312587	     -3.10792748	     -7.55421596	      0.00000000	      9.52073539	     -9.58893839	     -8.71233299	      6.49481451	      0.06892996	     10.14878745	      0.00000000	     -7.15057568	     -0.63713491	      0.21646744	      9.70534130	    -11.18155870	     22.96087310	     99.36653731	     90.56352808	     15.31102688	    -13.59851278	     32.45158043	     99.40542969	     68.49072730
      5.00000000	     -5.65101253	      0.06015450	      2.70773918	      1.02638039	      1.07950874	     -0.29641060	      9.31989655	     -7.58682327	     -6.18127269	     10.22540912	     -3.92436666	     -8.42548014	      0.00000000	      7.91367837	     -9.63844807	     -8.57393618	      5.80207678	      0.46928468	     10.60725558	      0.00000000	     -6.17180448	     -0.44540871	     -0.30710211	      7.58492605	    -11.63225397	     23.59446495	    100.79736567	     90.46538910	     11.89944641	    -13.60363390	     31.27533675	    101.05855312	     67.91835573
      5.01666670	     -5.06719614	      0.02697461	      2.89706560	      1.03401594	      1.08184494	     -0.29757264	      7.98178981	     -7.47830951	     -6.42152612	      9.96216451	     -4.12548479	     -8.61468167	      0.00000000	      6.54110858	     -9.58256459	     -8.48487361	      5.31034295	      0.82291658	     10.51139485	      0.00000000	     -4.68980159	     -0.38295427	     -0.27457623	      5.76802868	    -11.95663062	     24.10747998	    100.68986977	     90.46743847	      9.80344396	    -13.81655999	     31.56262217	    101.16725923	     67.84585240
      5.03333330	     -4.56610776	      0.10741244	      2.81661444	      1.03435585	      1.08224068	     -0.29756254	      6.95553658	     -7.49398708	     -6.68762119	      9.59427465	     -4.81735434	     -9.28114380	      0.00000000	      5.37105389	     -9.41960784	     -8.34905544	      4.86712105	      1.07054078	     10.51469813	      0.00000000	     -3.84307594	     -0.31367921	     -1.89669876	      5.60094056	    -12.08739892	     26.18673807	    100.20643084	     90.09071309	      6.15018887	    -14.03056270	     28.56866223	    103.11576675	     66.40531778
      5.05000000	     -4.05789366	      0.07487500	      2.65302164	      1.03865462	      1.07879422	     -0.29787871	      6.23029610	     -7.37213085	     -6.90635861	      9.63706565	     -4.71847610	     -9.46608012	      0.00000000	      4.40455827	     -9.49288881	     -8.08132058	      4.71517341	      1.65775344	     10.46509565	      0.00000000	     -2.89310575	     -0.15699209	     -1.91690158	      4.16211732	    -12.53565583	     26.56431063	    100.20985153	     90.09346168	      4.86186595	    -14.21357307	     28.73415926	    103.05809626	     66.38680491
      5.06666670	     -3.65633178	      0.09186788	      2.77162622	      1.04288071	      1.07655654	     -0.29737111	      5.31943077	     -7.37759362	     -6.82038777	      9.29659487	     -4.76215942	     -9.52705343	      0.00000000	      3.71535186	     -9.50808643	     -7.47847185	      4.66382284	      2.12654648	     10.21048324	      0.00000000	     -1.96751191	     -0.00824116	     -2.13061712	      2.78520730	    -13.11671128	     26.79080832	    101.13655510	     90.00508882	      3.34985545	    -14.13516877	     28.14646636	    103.24405572	     66.23669216
      5.08333330	     -3.24467665	      0.25317617	      2.64131840	      1.04783310	      1.07943689	     -0.30176255	      4.67241910	     -7.56836397	     -6.94352885	      9.20631514	     -4.71783183	     -9.67871890	      0.00000000	      2.90608600	     -9.25949563	     -7.33763910	      4.47759416	      2.68184889	      9.98798006	      0.00000000	     -1.12886840	      0.07058936	     -2.12795543	      1.62164746	    -13.57357716	     27.05544324	    101.19154770	     89.98807118	      1.93471459	    -14.19062763	     28.32116336	    103.23885801	     66.21770797
      5.10000000	     -2.79876890	      0.34763537	      2.56190487	      1.05252376	      1.07397470	     -0.30530818	      4.06791801	     -7.79313461	     -7.07578424	      9.33461805	     -4.66129642	     -9.89203521	      0.00000000	      2.20033140	     -9.10384893	     -7.34476388	      4.55860287	      3.26739267	      9.41882952	      0.00000000	     -0.43465152	      0.27191509	     -2.24696767	      0.66163657	    -14.04964343	     27.26500779	    101.37841365	     89.96067435	      0.63218190	    -13.99534101	     28.54919291	    103.30337226	     66.21457713
      5.11666670	     -2.21803348	     -0.03400155	      2.49414429	      1.05693591	      1.07927340	     -0.30127069	      3.67232553	     -7.23169327	     -6.53621200	      9.73009193	     -2.16018543	    -11.02605181	      0.00000000	      1.35880878	     -9.48045248	     -6.75206581	      4.66525390	      4.61350891	      8.88209845	      0.00000000	     -0.31879453	      1.02971194	     -2.36364302	     -0.12611918	    -14.48311246	     27.40779350	    101.29376698	     89.93004615	     -0.44511439	    -13.83044910	     28.62422112	    102.95694123	     66.21410557
